# xmcd CD database file
#
# Track frame offsets:
#	150
#	40806
#	74813
#	115781
#	156356
#
# Disc length: 2469 seconds
#
# Revision: 1
# Processed by: cddbd v1.5.2PL0 Copyright (c) Steve Scherf et al.
# Submitted via: CDex 1.70beta2
#
DISCID=4309a305
DTITLE=SIXUN - Fête ses 20 ans - Live à la Cigale - CD2
DYEAR=2006
DGENRE=Fusion - Jazz
TTITLE0=4000 Newport - Nuit Blanche - James Machine
TTITLE1=Sanza Univers
TTITLE2=Peniscola
TTITLE3=Aligogo
TTITLE4=Djoudjou
EXTD=YEAR: 2006
EXTT0=
EXTT1=
EXTT2=
EXTT3=
EXTT4=
PLAYORDER=
